<svg width="51" height="50" viewBox="0 0 51 50" fill="none" xmlns="http://www.w3.org/2000/svg">
<path d="M12.0895 46.3891C11.934 46.2933 11.7792 46.1975 11.6234 46.1023C11.5497 46.0576 11.4748 46.0146 11.4005 45.9719C11.3548 45.911 11.273 45.9048 11.2209 45.8539C10.3728 45.2776 9.55537 44.6574 8.77177 43.9961C7.70213 43.0834 6.71166 42.0818 5.81097 41.002C5.09477 40.1486 4.43902 39.2461 3.8485 38.3013C3.7718 38.1781 3.69477 38.0551 3.61741 37.9324C3.58482 37.8695 3.54603 37.8105 3.51083 37.7492C3.04509 36.967 2.62322 36.1595 2.24717 35.3304C1.9597 34.6945 1.69504 34.0511 1.45971 33.395C1.27979 32.894 1.11128 32.3892 0.973412 31.8745C0.895839 31.5844 0.792843 31.3002 0.734174 31.0065C0.638674 30.5317 0.517752 30.0613 0.432031 29.5845C0.346309 29.1076 0.276233 28.6269 0.203875 28.1477C0.150095 27.7931 0.133147 27.433 0.101205 27.0751C0.0933824 26.9881 0.0979454 26.8997 0.0868636 26.8143C0.00785909 26.0113 -0.0172943 25.2039 0.0115722 24.3975C0.00580949 24.0572 0.0245449 23.7169 0.0676333 23.3793C0.0878414 23.2453 0.0917526 23.1084 0.0985972 22.9725C0.121853 22.5265 0.168526 22.0819 0.238424 21.6407C0.281122 21.3627 0.314693 21.0831 0.358369 20.8054C0.390963 20.5945 0.427142 20.3836 0.472773 20.1753C0.574465 19.7115 0.674528 19.2474 0.790561 18.7875C0.942448 18.1865 1.12204 17.5939 1.31467 17.0043C1.50469 16.4241 1.72861 15.857 1.95839 15.2928C2.16993 14.7736 2.42253 14.27 2.67056 13.7664C2.97434 13.1491 3.31494 12.5513 3.67152 11.963C3.74648 11.8392 3.82829 11.7196 3.90684 11.598C3.95247 11.5758 3.93944 11.5172 3.97431 11.4891C3.99502 11.4705 4.01138 11.4476 4.02222 11.422C4.19856 11.1176 4.40781 10.8353 4.60891 10.5472C4.65727 10.4967 4.69741 10.439 4.72788 10.376L5.71938 9.08925C5.79858 8.99342 5.88854 8.90672 5.96024 8.80471C6.83867 7.77893 7.79499 6.8225 8.82067 5.94396C8.90006 5.88876 8.97454 5.82682 9.04328 5.75883L9.6932 5.23733C9.77505 5.18479 9.85235 5.12548 9.92429 5.06002L9.99273 5.01048C10.0467 4.96681 10.1034 4.92664 10.1625 4.8902L10.3933 4.71094C10.4556 4.67957 10.5131 4.63951 10.5641 4.59197L11.2205 4.13925C11.2424 4.09361 11.3014 4.10665 11.3297 4.0721C11.3476 4.05107 11.3699 4.03417 11.3949 4.02256C11.4096 4.01735 11.4242 4.0118 11.4389 4.00561C11.4633 3.99349 11.4854 3.97716 11.5041 3.95737V3.95737C11.5315 3.92119 11.5905 3.93521 11.6123 3.8899C12.1807 3.51964 12.773 3.19142 13.3688 2.86777C14.0001 2.52553 14.6517 2.22469 15.3107 1.94504C15.8521 1.70878 16.4057 1.50151 16.9691 1.32413C17.441 1.18104 17.9081 1.02003 18.382 0.884116C18.7353 0.78275 19.0952 0.703873 19.454 0.623367C19.8699 0.530801 20.2878 0.446057 20.7053 0.362617C20.8383 0.33589 20.9739 0.321549 21.1085 0.303297C21.4448 0.257991 21.7806 0.205516 22.1189 0.170966C22.6404 0.116209 23.1619 0.0731852 23.6853 0.0255985C23.7629 0.0187538 23.8405 0.0115832 23.9181 0.0109313C24.4722 0.00636818 25.0262 0.00180502 25.5803 0.000827208C25.9498 -0.00474162 26.3192 0.0178134 26.6853 0.0682964C26.7914 0.0814002 26.8981 0.0887987 27.005 0.09046C27.4709 0.109046 27.935 0.158918 28.3941 0.239739C28.6327 0.281785 28.8756 0.300363 29.1145 0.341431C29.5437 0.415745 29.9753 0.478651 30.3977 0.591425C30.678 0.66639 30.9638 0.7218 31.2467 0.786987C31.3598 0.813388 31.4723 0.843374 31.5851 0.871731C31.6998 0.92135 31.8202 0.956601 31.9436 0.976682C32.395 1.11781 32.8494 1.25112 33.2975 1.40268C33.6355 1.51708 33.9664 1.65365 34.2991 1.78305C34.7854 1.97242 35.259 2.18982 35.731 2.41178C36.2471 2.65471 36.7534 2.91622 37.2502 3.19631C37.7906 3.49976 38.3166 3.8257 38.8333 4.1676C39.3903 4.53591 39.933 4.92475 40.4545 5.34098C40.7043 5.52431 40.9429 5.72251 41.1689 5.93451C41.24 5.99969 41.3208 6.05445 41.3928 6.11996C42.13 6.74815 42.8259 7.42315 43.4762 8.14077C44.0247 8.74115 44.5429 9.36684 45.0309 10.0178C45.3324 10.4194 45.6131 10.8366 45.9031 11.2469C45.9306 11.3105 45.9682 11.3691 46.0143 11.4207C46.1668 11.6674 46.3223 11.9122 46.4706 12.1612C46.864 12.8176 47.2294 13.49 47.5599 14.1794C47.8395 14.7628 48.1042 15.3547 48.3297 15.962C48.5012 16.4235 48.6615 16.8892 48.8186 17.3557C48.905 17.6122 48.9754 17.8742 49.053 18.1337C49.1159 18.2624 49.1146 18.4094 49.1671 18.5411C49.2424 18.8416 49.3209 19.1415 49.3923 19.4426C49.4412 19.6499 49.4836 19.8592 49.5227 20.0684C49.596 20.4491 49.6889 20.8282 49.7313 21.2125C49.8056 21.8878 49.9131 22.5586 49.9409 23.2404C49.962 23.7544 50.0093 24.2684 50.0113 24.7834C50.0132 25.2596 50.0086 25.7368 49.9809 26.212C49.9461 26.813 49.9092 27.416 49.8274 28.0118C49.7842 28.5056 49.7063 28.9957 49.5944 29.4785C49.5527 29.6265 49.5553 29.7849 49.5214 29.9378C49.404 30.4674 49.2932 30.9984 49.1456 31.5205C48.9679 32.1532 48.773 32.7803 48.553 33.4005C48.2721 34.1939 47.9468 34.9676 47.5895 35.7281C47.3099 36.3235 47.0002 36.904 46.672 37.4744C46.3872 37.9699 46.0795 38.4522 45.7623 38.9262C45.3856 39.4907 44.9817 40.0343 44.5583 40.5659C43.7438 41.5923 42.8481 42.5515 41.8798 43.4342C41.1272 44.1185 40.3355 44.7586 39.5086 45.351C38.9654 45.7395 38.4076 46.1051 37.8352 46.4478C37.3463 46.7411 36.8476 47.0136 36.3411 47.2747C35.8011 47.5534 35.2414 47.7894 34.6932 48.0498C34.5456 48.1199 34.3878 48.1707 34.2349 48.2287C33.8203 48.3868 33.4035 48.54 32.983 48.685C32.4703 48.8597 31.9508 49.008 31.4296 49.1508C31.1037 49.2401 30.7758 49.3261 30.4414 49.3868C30.2712 49.4174 30.1047 49.4741 29.9319 49.5005C29.443 49.5755 28.9636 49.6961 28.4688 49.7407C28.1996 49.7652 27.931 49.816 27.6608 49.8486C27.448 49.8744 27.2354 49.8884 27.022 49.9014C26.6924 49.9216 26.3636 49.9588 26.0337 49.9741C25.2856 50.0127 24.5358 50.0095 23.788 49.9647C23.187 49.9255 22.5837 49.8929 21.9885 49.8072C21.4955 49.764 21.0062 49.6853 20.5244 49.5719C20.3764 49.5286 20.2174 49.5354 20.0645 49.4986C19.7353 49.4194 19.3986 49.3705 19.0717 49.2834C18.4648 49.1205 17.8589 48.9543 17.2598 48.7655C16.6151 48.5628 15.9799 48.3271 15.359 48.0622C14.7022 47.7819 14.0526 47.483 13.4226 47.143C13.049 46.9413 12.6729 46.7437 12.3144 46.5172C12.2521 46.453 12.1498 46.4582 12.0895 46.3891Z" fill="#FF6700"/>
<path d="M20.0275 30.8666L19.2756 31.7518C19.2163 31.7929 19.2013 31.8691 19.1475 31.9148L18.6293 32.5015C18.5882 32.5754 18.5136 32.6204 18.4663 32.6892C18.3262 32.8616 18.1886 33.0357 18.0455 33.2055C17.2465 34.152 16.447 35.0981 15.647 36.0437C15.4034 36.3319 15.1591 36.6195 14.9142 36.9065C14.8334 37.0007 14.8038 37.0072 14.7187 36.945C14.3308 36.6555 13.944 36.3648 13.5584 36.0727C13.5355 36.0551 13.5186 36.0297 13.4954 36.0125C13.4854 36.0055 13.4769 35.9964 13.4706 35.9859C13.4643 35.9754 13.4604 35.9636 13.4591 35.9514C13.4577 35.9393 13.4591 35.9269 13.4629 35.9153C13.4668 35.9037 13.4731 35.893 13.4814 35.884C13.5561 35.7833 13.6398 35.6885 13.72 35.5926C13.781 35.5174 13.8374 35.4385 13.9025 35.3668C14.3452 34.8453 14.7877 34.3227 15.2301 33.799C15.3673 33.636 15.5068 33.4763 15.645 33.3153C15.6971 33.2694 15.7128 33.1938 15.7754 33.1556L16.8712 31.8519C16.9364 31.7808 16.9944 31.7023 17.0537 31.6257L17.568 31.0308C17.6202 30.9878 17.6815 30.9203 17.6463 30.8679C17.5811 30.7743 17.481 30.8405 17.3946 30.8542C17.0961 30.8917 16.7975 30.9282 16.4996 30.9676C16.1514 31.0069 15.7998 31.0052 15.452 30.9627C15.365 30.9539 15.2783 30.9402 15.1913 30.9363C14.8436 30.9158 14.4985 30.8627 14.1607 30.7779C13.8589 30.7069 13.5636 30.6231 13.2712 30.523C12.5331 30.2615 11.8395 29.8883 11.2145 29.4165C10.4344 28.8388 9.7601 28.1305 9.22144 27.323C8.72176 26.5842 8.34417 25.7698 8.10315 24.911C7.97758 24.4933 7.8992 24.0627 7.86945 23.6275C7.86 23.3951 7.82252 23.1637 7.81078 22.931C7.79524 22.6299 7.80943 22.328 7.85316 22.0298C7.88966 21.7804 7.88575 21.5278 7.94051 21.2785C8.0084 20.9376 8.09347 20.6004 8.19539 20.2681C8.30119 19.9471 8.42492 19.6323 8.56598 19.3251C9.12106 18.1346 9.94599 17.0898 10.9753 16.2737C11.5067 15.8535 12.0867 15.4988 12.7028 15.217C13.0196 15.0743 13.3471 14.9625 13.6763 14.8507C13.9909 14.7438 14.3175 14.7027 14.6339 14.6124C14.8141 14.5715 14.9978 14.5485 15.1825 14.5437C15.7832 14.4932 16.3873 14.496 16.9875 14.5521C17.383 14.595 17.7743 14.6694 18.158 14.7744C18.5216 14.8721 18.8776 14.9966 19.2228 15.147C19.7382 15.3704 20.2296 15.6455 20.6895 15.968C21.3075 16.3888 21.8641 16.8934 22.3433 17.4673C22.4046 17.5419 22.4682 17.6143 22.5307 17.688C22.591 17.729 22.6119 17.7994 22.653 17.8545L22.8335 18.0846C22.8746 18.1413 22.9033 18.2062 22.9496 18.2597C23.2101 18.6562 23.4378 19.0734 23.6304 19.507C23.7332 19.746 23.8278 19.9886 23.914 20.2348C24.0493 20.6286 24.1492 21.0338 24.2122 21.4454C24.2887 21.9451 24.3214 22.4506 24.31 22.9561C24.3049 23.3349 24.27 23.7127 24.2057 24.0861C24.1078 24.6685 23.9472 25.2387 23.7266 25.7865C23.4731 26.424 23.1496 27.0314 22.7618 27.5974C22.6236 27.7956 22.4587 27.9755 22.3023 28.1606C22.0145 28.5006 21.7237 28.8386 21.4343 29.1772C21.3834 29.2242 21.3668 29.2988 21.3059 29.3379L20.2114 30.6417C20.1449 30.7122 20.0834 30.7874 20.0275 30.8666V30.8666Z" fill="white"/>
<path d="M29.712 15.6242C30.2403 15.2965 30.8104 15.0416 31.4069 14.8664C31.5096 14.839 31.6074 14.796 31.7097 14.767C31.9453 14.7132 32.1784 14.6448 32.4167 14.6096C32.723 14.5646 33.033 14.534 33.3423 14.5193C33.6614 14.5043 33.9828 14.5037 34.3022 14.5193C34.68 14.5256 35.0557 14.5761 35.4218 14.6696C35.561 14.7096 35.705 14.7318 35.8455 14.7618C35.9658 14.7944 36.0867 14.8247 36.204 14.8668C36.8699 15.0686 37.5054 15.3599 38.0928 15.7328C38.7376 16.1271 39.3263 16.6064 39.8431 17.1578C40.2911 17.6274 40.6763 18.1533 40.9888 18.7223C41.0488 18.7894 41.0478 18.8895 41.1136 18.9537C41.2512 19.1623 41.3634 19.3864 41.448 19.6215C41.5377 19.8242 41.611 20.0348 41.6896 20.2408C41.7147 20.3626 41.7508 20.4818 41.7974 20.597C41.8444 20.7946 41.8998 20.9908 41.9366 21.1906C41.9816 21.4189 42.0142 21.6494 42.0344 21.8812C42.0788 22.4332 42.0796 22.9878 42.037 23.5399C41.9871 24.07 41.883 24.5936 41.7264 25.1025C41.4645 25.963 41.0777 26.7805 40.5784 27.5287C40.4632 27.6961 40.3378 27.8562 40.203 28.0082C39.9217 28.3406 39.6355 28.6689 39.3513 28.9987C39.3021 29.047 39.2861 29.1222 39.2238 29.1594L38.1287 30.4631C38.0635 30.5342 38.0058 30.6131 37.9458 30.689L37.4276 31.2773C37.3751 31.3233 37.3592 31.3983 37.2972 31.4374L36.5476 32.3256C36.5085 32.4012 36.4338 32.4455 36.3846 32.513L36.2018 32.7411C36.1363 32.8131 36.0757 32.8893 36.0202 32.9693C35.7366 33.2988 35.4505 33.6267 35.1695 33.9588C34.7761 34.4236 34.3873 34.892 33.9961 35.3587C33.7975 35.5953 33.5986 35.8318 33.3994 36.068C33.3342 36.14 33.2775 36.2189 33.2162 36.2942C33.0835 36.4464 32.9505 36.5983 32.8185 36.7505C32.7683 36.8088 32.724 36.872 32.6719 36.9288C32.6627 36.9432 32.6505 36.9554 32.6361 36.9645C32.6217 36.9737 32.6054 36.9796 32.5885 36.9819C32.5716 36.9841 32.5544 36.9826 32.5381 36.9775C32.5218 36.9724 32.5068 36.9637 32.4942 36.9522C32.4385 36.9147 32.3873 36.8714 32.3339 36.8306C32.2951 36.7671 32.2224 36.7488 32.1667 36.7078L31.6347 36.3039C31.5937 36.2427 31.522 36.2234 31.4669 36.1817C31.4516 36.1706 31.4343 36.1599 31.4209 36.1491C31.1791 35.9614 31.1602 35.95 31.3805 35.7195C31.4714 35.6237 31.5536 35.5191 31.6412 35.4184C31.6941 35.3727 31.7094 35.2971 31.7716 35.2583C32.6636 34.2036 33.5558 33.1488 34.4482 32.0938C34.488 32.0188 34.5623 31.9739 34.6112 31.9064L34.7934 31.6782C34.8595 31.6073 34.9205 31.5319 34.9759 31.4524C35.1389 31.2594 35.3018 31.0671 35.4616 30.8735C35.4671 30.866 35.4709 30.8573 35.4727 30.8481C35.4745 30.8389 35.4743 30.8295 35.472 30.8204C35.4593 30.7878 35.4296 30.7907 35.4009 30.7985C35.1293 30.871 34.8515 30.9174 34.5711 30.9374C34.5033 30.9426 34.4345 30.942 34.3677 30.9537C33.9636 31.0158 33.5524 31.0164 33.1481 30.9556C33.0421 30.9426 32.9346 30.9459 32.8283 30.9345C32.5385 30.9169 32.2515 30.8678 31.9724 30.7881C31.8811 30.7578 31.7804 30.7588 31.6869 30.734C31.154 30.5961 30.6381 30.3993 30.1488 30.1473C29.1322 29.6209 28.2332 28.8933 27.5064 28.0088C27.0876 27.5003 26.7261 26.9472 26.4282 26.3596C26.2419 25.9877 26.0855 25.6016 25.9605 25.2048C25.8696 24.918 25.8148 24.6233 25.7284 24.3359C25.6795 24.158 25.6506 23.9752 25.6421 23.7909C25.6157 23.4128 25.5941 23.0341 25.5902 22.6553C25.5872 22.3735 25.6021 22.0917 25.6349 21.8118C25.6595 21.5416 25.7045 21.2737 25.7695 21.0103C25.8347 20.7682 25.8868 20.5231 25.9628 20.2822C26.1462 19.6922 26.4027 19.1275 26.7265 18.6013C26.7854 18.5531 26.7916 18.471 26.8454 18.4191C27.0207 18.0955 27.2328 17.7932 27.4774 17.5182C28.0103 16.8758 28.6342 16.3147 29.3294 15.8527C29.3946 15.81 29.4637 15.7764 29.5311 15.7386C29.5898 15.6966 29.6671 15.6858 29.712 15.6242Z" fill="white"/>
<path d="M24.9926 15.0345C25.8776 15.0345 26.7624 15.0345 27.647 15.0345C27.7151 15.0345 27.7829 15.0374 27.8507 15.0417C27.8599 15.0426 27.8687 15.0461 27.876 15.0516C27.8833 15.0572 27.889 15.0647 27.8924 15.0733C27.8958 15.0819 27.8967 15.0912 27.8951 15.1003C27.8935 15.1094 27.8894 15.1179 27.8833 15.1248C27.8465 15.1698 27.8087 15.2144 27.7686 15.2552C27.4681 15.571 27.1659 15.8852 26.8661 16.2004C26.3065 16.7914 25.7476 17.3831 25.1891 17.9754C25.1586 18.0132 25.1253 18.0486 25.0894 18.0814C25.0793 18.092 25.0671 18.1005 25.0536 18.1063C25.0401 18.1122 25.0255 18.1152 25.0108 18.1152C24.9961 18.1152 24.9816 18.1122 24.9681 18.1063C24.9546 18.1005 24.9424 18.092 24.9323 18.0814C24.8642 18.0123 24.7987 17.9409 24.7318 17.8705C23.9061 16.9983 23.0797 16.1262 22.2524 15.2542C22.2181 15.2202 22.1854 15.1845 22.1547 15.1473C22.137 15.126 22.1267 15.0996 22.125 15.072C22.125 15.0345 22.1641 15.0348 22.1902 15.0339C22.2678 15.0312 22.3457 15.0313 22.4232 15.0313L24.9926 15.0345Z" fill="white"/>
<path d="M12.4421 17.3861C12.9638 17.0329 13.5294 16.7492 14.1246 16.5422C14.4647 16.4252 14.8188 16.3538 15.1777 16.3297C15.3621 16.3196 15.5463 16.3017 15.7318 16.2857C16.1595 16.2569 16.5891 16.2788 17.0117 16.3509C17.6257 16.4439 18.2218 16.6307 18.7789 16.905C19.4131 17.2204 20.0001 17.6226 20.523 18.1002C20.7175 18.2758 20.8979 18.4664 21.0625 18.6703C21.5829 19.2739 21.9769 19.976 22.2208 20.7348C22.3571 21.1894 22.4483 21.6563 22.493 22.1288C22.5243 22.6238 22.5165 23.1206 22.4695 23.6144C22.4492 23.8075 22.4135 23.9987 22.3629 24.1861C22.2182 24.8194 21.9763 25.4266 21.6459 25.9859C21.2585 26.6601 20.7543 27.26 20.157 27.7577C19.6013 28.2261 18.9668 28.5922 18.2832 28.8388C17.9983 28.9366 17.7073 29.0067 17.4178 29.0797C17.152 29.1383 16.881 29.1701 16.6088 29.1746C16.2594 29.1899 15.9084 29.1879 15.5584 29.1746C15.239 29.1609 14.9221 29.1126 14.6131 29.0305C14.3316 28.9617 14.0537 28.8785 13.7807 28.7812C13.3738 28.6276 12.9839 28.4326 12.6171 28.199C12.2906 27.9908 11.9803 27.7582 11.6888 27.5032C11.3978 27.2457 11.134 26.9588 10.9017 26.6472C10.5758 26.2373 10.3067 25.7851 10.1018 25.3031C9.97144 25.0011 9.86899 24.6877 9.79579 24.367C9.75864 24.1871 9.71561 24.0085 9.68595 23.8272C9.59863 23.2202 9.58593 22.6047 9.64814 21.9945C9.69642 21.4919 9.82014 20.9994 10.0151 20.5337C10.4196 19.48 11.0654 18.5358 11.9007 17.7769C12.0161 17.6742 12.1478 17.5905 12.2719 17.4979C12.3235 17.4533 12.3807 17.4157 12.4421 17.3861Z" fill="#FF6700"/>
<path d="M34.9767 29.1041C34.3525 29.2138 33.7156 29.2316 33.0862 29.1569C32.2357 29.0719 31.4133 28.8058 30.6743 28.3763C30.1635 28.0954 29.6945 27.7443 29.2812 27.3333C28.9874 27.0384 28.719 26.7192 28.4788 26.3793C28.1277 25.8804 27.855 25.3308 27.6701 24.7496C27.5674 24.4263 27.4927 24.0948 27.4469 23.7587C27.4046 23.4114 27.3809 23.062 27.3758 22.7121C27.3693 22.3521 27.4021 21.9924 27.4736 21.6395C27.5613 21.1829 27.6984 20.7373 27.8823 20.3103C28.136 19.7345 28.4552 19.1897 28.8334 18.6868C28.897 18.6014 28.9638 18.5177 29.027 18.4329C29.0446 18.4114 29.0632 18.3912 29.0821 18.371C29.1039 18.3543 29.122 18.3332 29.1352 18.3091V18.3071C29.1482 18.302 29.1599 18.2941 29.1696 18.284C29.1792 18.2739 29.1866 18.2619 29.1913 18.2488C29.6732 17.7285 30.248 17.3029 30.8861 16.9936C31.1935 16.8303 31.5111 16.687 31.8369 16.5647C31.9461 16.5256 32.058 16.4942 32.1716 16.4708C32.4619 16.3903 32.7598 16.3408 33.0605 16.3231C33.2642 16.3231 33.4679 16.2866 33.6716 16.2827C34.2355 16.2706 34.7985 16.3338 35.3456 16.4708C36.7208 16.8387 37.9497 17.6205 38.8657 18.7103C39.3555 19.2759 39.7293 19.9321 39.9661 20.6418C40.1067 21.0749 40.2029 21.5211 40.2532 21.9736C40.295 22.3305 40.3084 22.6901 40.2933 23.0492C40.2557 23.8057 40.0857 24.5498 39.7911 25.2476C39.466 26.0072 39.0048 26.701 38.4303 27.2948C38.1435 27.5977 37.8237 27.8677 37.4769 28.0996C37.1431 28.3307 36.7883 28.53 36.4173 28.695C36.1103 28.8372 35.7869 28.941 35.4545 29.004C35.2975 29.0474 35.1379 29.0809 34.9767 29.1041V29.1041Z" fill="#FF6700"/>
<path d="M15.0137 23.6799C14.8616 23.5383 14.7398 23.3672 14.6558 23.1771C14.5717 22.987 14.5272 22.7819 14.5248 22.574C14.5112 22.2629 14.601 21.956 14.78 21.7012C14.7992 21.6464 14.8527 21.6168 14.8797 21.5679C14.9089 21.5051 14.9538 21.451 15.0101 21.4108C15.0838 21.348 15.1607 21.2891 15.2405 21.2344C15.4405 21.0951 15.6718 21.0073 15.9138 20.9789C16.1559 20.9504 16.4012 20.9822 16.628 21.0715C16.8522 21.1512 17.0547 21.2818 17.2198 21.453C17.3849 21.6243 17.508 21.8315 17.5795 22.0584C17.6902 22.4016 17.6803 22.7722 17.5516 23.109C17.4228 23.4458 17.1829 23.7286 16.8715 23.9104C16.7992 23.9615 16.7086 23.9756 16.6362 24.028C16.607 24.0289 16.578 24.0323 16.5495 24.0385C16.3324 24.1108 16.1015 24.132 15.8749 24.1004C15.6483 24.0687 15.4321 23.985 15.2431 23.8559C15.163 23.8022 15.0864 23.7434 15.0137 23.6799V23.6799Z" fill="white"/>
<path d="M35.4981 22.5596C35.4966 22.8703 35.403 23.1735 35.2292 23.431C35.0553 23.6885 34.8091 23.8887 34.5215 24.0063C34.2339 24.1238 33.918 24.1535 33.6136 24.0916C33.3091 24.0297 33.0299 23.8789 32.8111 23.6583C32.5923 23.4377 32.4439 23.1572 32.3845 22.8523C32.3251 22.5474 32.3574 22.2317 32.4773 21.9451C32.5973 21.6585 32.7995 21.4139 33.0584 21.2422C33.3173 21.0705 33.6213 20.9795 33.932 20.9805C34.1387 20.9807 34.3433 21.0218 34.5341 21.1014C34.7249 21.181 34.898 21.2975 35.0436 21.4443C35.1891 21.591 35.3042 21.7651 35.3822 21.9566C35.4603 22.148 35.4996 22.3529 35.4981 22.5596Z" fill="white"/>
</svg>
